<svg width="21" height="20" viewBox="0 0 21 20" fill="none" xmlns="http://www.w3.org/2000/svg">
<path d="M10.4999 0C13.3301 0 13.6833 0.00999994 14.7937 0.0599999C15.903 0.11 16.6583 0.277 17.3228 0.525C18.0103 0.779 18.5895 1.123 19.1687 1.678C19.6984 2.1779 20.1082 2.78259 20.3697 3.45C20.627 4.087 20.802 4.813 20.8541 5.878C20.903 6.944 20.9166 7.283 20.9166 10C20.9166 12.717 20.9062 13.056 20.8541 14.122C20.802 15.187 20.627 15.912 20.3697 16.55C20.109 17.2178 19.699 17.8226 19.1687 18.322C18.6478 18.8303 18.018 19.2238 17.3228 19.475C16.6593 19.722 15.903 19.89 14.7937 19.94C13.6833 19.987 13.3301 20 10.4999 20C7.66971 20 7.31659 19.99 6.20617 19.94C5.09679 19.89 4.34159 19.722 3.677 19.475C2.98151 19.2245 2.35151 18.8309 1.83117 18.322C1.30138 17.8222 0.891514 17.2175 0.630127 16.55C0.371794 15.913 0.197835 15.187 0.145752 14.122C0.0967936 13.056 0.083252 12.717 0.083252 10C0.083252 7.283 0.0936686 6.944 0.145752 5.878C0.197835 4.812 0.371794 4.088 0.630127 3.45C0.89079 2.78218 1.30076 2.17732 1.83117 1.678C2.35166 1.16923 2.98162 0.775729 3.677 0.525C4.34159 0.277 5.09575 0.11 6.20617 0.0599999C7.31659 0.0129999 7.66971 0 10.4999 0ZM10.4999 5C9.11858 5 7.79382 5.52678 6.81707 6.46447C5.84032 7.40215 5.29159 8.67392 5.29159 10C5.29159 11.3261 5.84032 12.5979 6.81707 13.5355C7.79382 14.4732 9.11858 15 10.4999 15C11.8813 15 13.206 14.4732 14.1828 13.5355C15.1595 12.5979 15.7083 11.3261 15.7083 10C15.7083 8.67392 15.1595 7.40215 14.1828 6.46447C13.206 5.52678 11.8813 5 10.4999 5ZM17.2708 4.75C17.2708 4.41848 17.1336 4.10054 16.8894 3.86612C16.6452 3.6317 16.314 3.5 15.9687 3.5C15.6233 3.5 15.2921 3.6317 15.048 3.86612C14.8038 4.10054 14.6666 4.41848 14.6666 4.75C14.6666 5.08152 14.8038 5.39946 15.048 5.63388C15.2921 5.8683 15.6233 6 15.9687 6C16.314 6 16.6452 5.8683 16.8894 5.63388C17.1336 5.39946 17.2708 5.08152 17.2708 4.75ZM10.4999 7C11.3287 7 12.1236 7.31607 12.7096 7.87868C13.2957 8.44129 13.6249 9.20435 13.6249 10C13.6249 10.7956 13.2957 11.5587 12.7096 12.1213C12.1236 12.6839 11.3287 13 10.4999 13C9.67112 13 8.87626 12.6839 8.29021 12.1213C7.70416 11.5587 7.37492 10.7956 7.37492 10C7.37492 9.20435 7.70416 8.44129 8.29021 7.87868C8.87626 7.31607 9.67112 7 10.4999 7Z" fill="white"/>
</svg>
