<svg width="24" height="23" viewBox="0 0 24 23" fill="none" xmlns="http://www.w3.org/2000/svg">
<path d="M24 13.9811V22.8H18.8341V14.5189C18.8341 12.4755 18.0807 11.0774 16.2511 11.0774C14.852 11.0774 13.991 12.0453 13.6682 12.9057C13.5605 13.2283 13.4529 13.6585 13.4529 14.1962V22.8H8.28699C8.28699 22.8 8.39462 8.81887 8.28699 7.42076H13.4529V9.5717C14.0987 8.49623 15.3901 6.99057 18.0807 6.99057C21.417 6.99057 24 9.24906 24 13.9811ZM2.90583 0C1.18385 0 0 1.18302 0 2.68868C0 4.19434 1.07623 5.37736 2.79821 5.37736C4.6278 5.37736 5.70404 4.19434 5.70404 2.68868C5.81166 1.07547 4.73542 0 2.90583 0ZM0.322869 22.8H5.48879V7.42076H0.322869V22.8Z" fill="white"/>
</svg>
