<svg width="660" height="608" viewBox="0 0 660 608" fill="none" xmlns="http://www.w3.org/2000/svg">
<path fill-rule="evenodd" clip-rule="evenodd" d="M353.938 5.74188C415.345 -6.28543 486.509 3.18675 532.727 45.37C577.858 86.561 568.131 157.657 584.793 216.444C600.583 272.156 632.777 322.715 627.681 380.397C621.658 448.581 607.473 524.068 553.858 566.62C499.709 609.595 420.733 615.467 353.938 597.654C294.219 581.728 272.966 507.268 218.915 477.296C151.615 439.976 35.026 475.755 5.762 404.582C-22.6678 335.438 66.2925 272.885 109.901 212.16C140.246 169.904 179.973 140.278 219.693 106.681C263.511 69.6177 297.617 16.7729 353.938 5.74188Z" fill="white"/>
<path d="M237.977 460.698C315.527 497.655 441.254 497.666 518.804 460.698C596.354 423.729 596.342 363.814 518.804 326.856C441.265 289.899 315.527 289.899 237.977 326.856C160.428 363.814 160.439 423.74 237.977 460.698Z" fill="#F5F5F5"/>
<path d="M518.534 433.385C532.817 433.385 544.395 427.868 544.395 421.062C544.395 414.256 532.817 408.739 518.534 408.739C504.251 408.739 492.673 414.256 492.673 421.062C492.673 427.868 504.251 433.385 518.534 433.385Z" fill="#EBEBEB"/>
<path d="M232.092 422.829L241.241 417.551C246.349 413.382 250.237 407.911 252.495 401.717C255.319 393.929 254.925 388.009 252.9 385.039C250.413 381.381 243.964 382.022 243.705 389.72C243.165 404.89 238.743 415.412 232.092 422.829Z" fill="#00C853"/>
<path opacity="0.2" d="M232.092 422.829L241.241 417.551C246.349 413.382 250.237 407.911 252.495 401.717C255.319 393.929 254.925 388.009 252.9 385.039C250.413 381.381 243.964 382.022 243.705 389.72C243.165 404.89 238.743 415.412 232.092 422.829Z" fill="black"/>
<path d="M232.091 423.391C231.972 423.39 231.857 423.351 231.761 423.279C231.666 423.208 231.596 423.108 231.561 422.994C231.525 422.88 231.528 422.758 231.566 422.646C231.605 422.533 231.679 422.435 231.776 422.367C252.933 407.737 248.837 387.334 248.792 387.132C248.777 387.058 248.776 386.981 248.79 386.907C248.804 386.833 248.832 386.762 248.873 386.699C248.915 386.636 248.968 386.581 249.03 386.539C249.093 386.496 249.163 386.466 249.237 386.451C249.31 386.435 249.387 386.434 249.461 386.448C249.535 386.462 249.606 386.491 249.669 386.532C249.732 386.573 249.787 386.627 249.829 386.689C249.872 386.751 249.902 386.821 249.917 386.895C249.917 387.109 254.239 408.21 232.452 423.29C232.346 423.362 232.219 423.398 232.091 423.391Z" fill="white"/>
<path d="M213.759 433.418C213.759 433.418 210.574 430.83 211.34 427.319C212.105 423.808 214.164 421.287 210.642 416.763C207.119 412.239 206.14 406.207 210.349 402.943C213.557 400.411 218.565 403.99 220.365 397.316C221.693 392.432 221.243 381.617 227.466 378.016C233.69 374.415 237.595 379.839 236.616 387.177C235.76 393.738 234.545 400.051 235.49 401.807C237.313 405.183 240.431 404.721 240.284 410.888C240.161 416.628 234.725 421.377 234.725 421.377L213.759 433.418Z" fill="#00C853"/>
<path d="M224.214 427.915C224.076 427.914 223.944 427.863 223.841 427.772C223.737 427.681 223.67 427.556 223.651 427.42C222.042 414.084 225.902 391.059 229.053 384.217C229.08 384.141 229.122 384.072 229.178 384.014C229.233 383.955 229.301 383.91 229.375 383.88C229.45 383.85 229.53 383.837 229.61 383.84C229.691 383.844 229.769 383.865 229.841 383.902C229.908 383.932 229.968 383.975 230.019 384.029C230.069 384.083 230.107 384.147 230.133 384.216C230.158 384.285 230.169 384.359 230.165 384.433C230.161 384.506 230.143 384.578 230.111 384.645C226.994 391.397 223.269 414.49 224.81 427.24C224.826 427.388 224.783 427.536 224.69 427.651C224.597 427.767 224.463 427.842 224.315 427.859L224.214 427.915Z" fill="white"/>
<path d="M223.91 417.528C223.824 417.532 223.738 417.513 223.662 417.472C219.757 415.57 217.282 408.784 217.18 408.469C217.153 408.399 217.139 408.324 217.141 408.249C217.143 408.174 217.16 408.099 217.191 408.031C217.222 407.962 217.266 407.901 217.322 407.85C217.377 407.798 217.442 407.759 217.512 407.733C217.583 407.708 217.658 407.697 217.733 407.701C217.809 407.705 217.882 407.724 217.95 407.756C218.017 407.789 218.078 407.835 218.127 407.892C218.177 407.949 218.215 408.015 218.238 408.086C218.238 408.154 220.658 414.726 224.158 416.425C224.272 416.481 224.365 416.574 224.42 416.689C224.475 416.804 224.489 416.934 224.461 417.059C224.432 417.183 224.362 417.294 224.262 417.373C224.162 417.452 224.038 417.495 223.91 417.494V417.528Z" fill="white"/>
<path d="M223.843 422.03C223.73 422.03 223.62 421.995 223.527 421.931C223.435 421.867 223.364 421.775 223.325 421.67C223.269 421.532 223.269 421.378 223.326 421.241C223.383 421.104 223.492 420.995 223.629 420.938C230.201 418.305 234.297 410.483 234.342 410.393C234.411 410.26 234.53 410.16 234.672 410.115C234.814 410.07 234.969 410.083 235.102 410.151C235.235 410.22 235.335 410.339 235.38 410.481C235.426 410.623 235.413 410.778 235.344 410.911C235.164 411.249 231.011 419.194 224.09 421.985C224.013 422.021 223.928 422.037 223.843 422.03Z" fill="white"/>
<path d="M453.566 361.484C453.566 361.484 448.648 353.517 448.164 344.863C447.68 336.208 449.582 332.607 452.193 331.572C454.804 330.536 455.006 333.721 456.345 335.601C457.685 337.48 460.419 336.411 461.432 330.548C462.445 324.685 466.136 314.792 473.811 312.868C482.252 310.775 477.728 320.678 475.601 324.538C473.474 328.398 471.831 333.665 473.226 335.094C474.622 336.523 476.794 333.879 478.853 336.332C481.363 339.292 473.564 349.949 469.085 352.526L453.566 361.484Z" fill="#00C853"/>
<path d="M460.307 358.142C460.233 358.139 460.16 358.122 460.093 358.091C460.026 358.06 459.965 358.016 459.915 357.961C459.865 357.907 459.826 357.843 459.801 357.774C459.775 357.704 459.764 357.631 459.767 357.557C460.529 343.635 464.87 330.146 472.371 318.394C472.413 318.332 472.468 318.28 472.531 318.241C472.594 318.201 472.665 318.175 472.738 318.163C472.812 318.152 472.887 318.155 472.959 318.174C473.032 318.192 473.099 318.225 473.159 318.27C473.277 318.357 473.355 318.488 473.379 318.633C473.402 318.778 473.367 318.926 473.282 319.046C465.916 330.627 461.653 343.908 460.903 357.613C460.899 357.687 460.88 357.759 460.848 357.826C460.815 357.893 460.77 357.952 460.715 358.001C460.659 358.05 460.595 358.088 460.525 358.112C460.455 358.136 460.381 358.146 460.307 358.142Z" fill="white"/>
<path d="M460.948 351.491C460.854 351.49 460.762 351.467 460.678 351.423C457.527 349.679 455.783 344.502 455.715 344.289C455.69 344.218 455.68 344.144 455.684 344.07C455.688 343.995 455.707 343.923 455.739 343.856C455.772 343.789 455.817 343.729 455.873 343.679C455.929 343.63 455.994 343.592 456.064 343.568C456.206 343.522 456.36 343.534 456.493 343.602C456.626 343.669 456.727 343.787 456.773 343.928C456.773 343.928 458.461 348.914 461.275 350.433C461.402 350.508 461.495 350.63 461.535 350.773C461.575 350.915 461.558 351.068 461.488 351.198C461.438 351.295 461.359 351.375 461.263 351.427C461.167 351.479 461.057 351.501 460.948 351.491Z" fill="white"/>
<path d="M461.5 348.081C461.375 348.08 461.254 348.037 461.157 347.96C461.059 347.882 460.989 347.774 460.96 347.653C460.941 347.582 460.937 347.509 460.947 347.436C460.958 347.363 460.983 347.294 461.02 347.231C461.058 347.168 461.108 347.113 461.167 347.07C461.226 347.026 461.293 346.995 461.365 346.978C469.49 344.919 472.303 340.665 472.326 340.62C472.366 340.557 472.418 340.503 472.479 340.46C472.539 340.417 472.608 340.387 472.681 340.371C472.753 340.354 472.829 340.353 472.902 340.366C472.975 340.378 473.045 340.406 473.108 340.445C473.171 340.485 473.225 340.537 473.268 340.598C473.311 340.659 473.341 340.728 473.357 340.8C473.373 340.873 473.375 340.948 473.362 341.021C473.349 341.095 473.322 341.165 473.282 341.228C473.159 341.419 470.233 345.887 461.646 348.07L461.5 348.081Z" fill="white"/>
<path d="M331.125 343.996C331.125 343.996 320.332 341.363 319.77 321.151C319.173 299.341 322.414 273.885 309.641 271.826C296.868 269.766 289.778 285.33 289.936 303.505C290.082 319.418 296.497 353.967 331.08 360.742L331.125 343.996Z" fill="#00C853"/>
<path opacity="0.2" d="M331.125 343.996C331.125 343.996 320.332 341.363 319.77 321.151C319.173 299.341 322.414 273.885 309.641 271.826C296.868 269.766 289.778 285.33 289.936 303.505C290.082 319.418 296.497 353.967 331.08 360.742L331.125 343.996Z" fill="black"/>
<path d="M331.125 358.671H331.023C323.247 357.253 316.911 352.965 312.196 345.943C298.219 325.09 302.619 286.152 304.071 279.354C304.103 279.21 304.19 279.083 304.314 279.001C304.438 278.919 304.589 278.889 304.734 278.915C304.88 278.95 305.007 279.04 305.089 279.166C305.17 279.291 305.201 279.443 305.173 279.591C303.744 286.343 299.366 324.786 313.13 345.313C315.133 348.496 317.776 351.228 320.891 353.336C324.007 355.444 327.526 356.881 331.226 357.557C331.299 357.57 331.369 357.598 331.432 357.639C331.494 357.68 331.548 357.733 331.59 357.794C331.632 357.856 331.661 357.926 331.676 357.999C331.691 358.072 331.691 358.148 331.676 358.221C331.652 358.349 331.584 358.464 331.483 358.547C331.382 358.629 331.255 358.673 331.125 358.671Z" fill="white"/>
<path d="M331.125 410.539C319.972 412.047 301.865 412.025 291.41 403.787C280.955 395.549 283.139 388.46 287.156 385.5C291.174 382.54 294.663 379.164 287.753 372.592C280.843 366.02 269.747 355.464 266.146 339.63C262.544 323.795 264.322 313.892 271.39 310.595C278.243 307.399 280.055 312.485 284.253 322.974C288.451 333.462 297.892 324.471 305.973 327.746C314.053 331.02 313.726 337.503 314.233 343.073C314.739 348.644 317.406 350.186 321.987 350.186C326.567 350.186 331.125 352.819 331.125 358.063V410.539Z" fill="#00C853"/>
<path d="M331.125 392.151C331.077 392.162 331.027 392.162 330.979 392.151C330.495 392.016 318.96 388.662 302.158 373.233C284.264 356.803 275.824 332.157 275.734 331.909C275.691 331.768 275.704 331.615 275.771 331.483C275.838 331.35 275.954 331.249 276.094 331.201C276.234 331.154 276.387 331.164 276.52 331.23C276.653 331.295 276.754 331.41 276.803 331.549C276.882 331.797 285.243 356.173 302.923 372.401C319.488 387.627 331.159 391.037 331.282 391.07C331.353 391.091 331.42 391.126 331.477 391.172C331.535 391.218 331.583 391.275 331.618 391.34C331.654 391.405 331.676 391.476 331.684 391.549C331.692 391.623 331.686 391.697 331.665 391.768C331.629 391.882 331.556 391.981 331.459 392.05C331.361 392.119 331.244 392.154 331.125 392.151Z" fill="white"/>
<path d="M306.85 377.15C306.737 377.151 306.626 377.118 306.533 377.053C306.441 376.988 306.37 376.896 306.333 376.789C302.72 367.516 301.899 347.676 301.831 346.832C301.828 346.683 301.883 346.539 301.983 346.43C302.084 346.321 302.223 346.255 302.371 346.247C302.518 346.249 302.659 346.305 302.767 346.405C302.875 346.505 302.943 346.641 302.957 346.787C302.957 346.989 303.801 367.28 307.345 376.384C307.373 376.454 307.386 376.528 307.384 376.602C307.382 376.677 307.366 376.75 307.335 376.818C307.305 376.886 307.261 376.948 307.207 376.999C307.153 377.05 307.089 377.09 307.019 377.116C306.965 377.135 306.908 377.147 306.85 377.15Z" fill="white"/>
<path d="M306.76 390.485C305.723 390.493 304.686 390.441 303.654 390.328C303.58 390.319 303.509 390.296 303.444 390.259C303.379 390.223 303.322 390.174 303.276 390.115C303.23 390.057 303.196 389.99 303.176 389.918C303.156 389.846 303.15 389.771 303.159 389.698C303.168 389.624 303.191 389.552 303.228 389.487C303.264 389.422 303.313 389.365 303.372 389.319C303.43 389.273 303.497 389.239 303.569 389.219C303.64 389.199 303.715 389.193 303.789 389.202C303.891 389.202 314.368 390.395 319.173 385.5C319.223 385.441 319.285 385.392 319.355 385.358C319.424 385.324 319.5 385.304 319.577 385.301C319.655 385.297 319.732 385.31 319.805 385.338C319.877 385.365 319.943 385.408 319.998 385.462C320.053 385.517 320.097 385.582 320.125 385.654C320.154 385.726 320.168 385.803 320.165 385.881C320.163 385.958 320.145 386.034 320.111 386.104C320.078 386.174 320.031 386.237 319.972 386.288C316.495 389.878 310.429 390.485 306.76 390.485Z" fill="white"/>
<path d="M298.657 177.384L297.442 170.373L291.185 174.492C290.613 173.366 289.803 172.379 288.81 171.6L291.804 163.497L286.177 162.248L282.058 170.125C280.568 170.377 279.123 170.847 277.77 171.521L275.981 165.579L269.296 170.834L269.735 177.812C268.374 179.337 267.139 180.97 266.044 182.696L260.53 182.414L256.658 191.091L261.396 193.117C260.902 194.911 260.589 196.751 260.462 198.609L254.441 204.145L255.646 211.168L261.914 207.049C262.482 208.173 263.293 209.157 264.288 209.93L261.351 218.044L266.978 219.282L272.875 213.542C274.237 213.329 273.899 210.763 275.385 210.031L277.174 215.951L283.848 210.706L283.679 207.96C285.029 206.452 290.138 203.133 291.241 201.4L292.625 199.149L296.497 190.472L294.696 187.209L292.693 182.955L298.657 177.384ZM278.232 200.465C273.1 204.494 271.48 205.383 270.613 199.993C269.747 194.602 272.684 186.41 277.815 182.369C282.947 178.329 284.905 178.048 285.828 183.427C286.751 188.807 283.375 196.482 278.232 200.465Z" fill="#E0E0E0"/>
<path d="M286.222 162.248L293.526 166.457L289.407 174.312L282.103 170.103L286.222 162.248Z" fill="#F5F5F5"/>
<path d="M304.746 174.582L298.489 178.701L291.185 174.492L297.442 170.373L304.746 174.582Z" fill="#F5F5F5"/>
<path d="M303.744 194.647L299.006 192.633L291.703 188.424L296.44 190.438L303.744 194.647Z" fill="#E0E0E0"/>
<path d="M261.34 218.044L268.644 222.241L271.637 214.139L264.333 209.93L261.34 218.044Z" fill="#E0E0E0"/>
<path d="M284.41 220.16L277.118 215.951L275.328 210.031L282.632 214.24L284.41 220.16Z" fill="#E0E0E0"/>
<path d="M305.95 181.593L304.746 174.582L298.489 178.701C297.913 177.575 297.099 176.588 296.103 175.808L299.097 167.706L293.526 166.457L289.396 174.334C287.906 174.586 286.461 175.056 285.108 175.73L283.33 169.81L276.645 175.066L277.084 182.043C275.721 183.579 274.487 185.223 273.393 186.961L267.867 186.68L263.996 195.356L268.734 197.382C268.244 199.181 267.931 201.025 267.8 202.885L261.79 208.343L262.994 215.365L269.252 211.247C269.828 212.369 270.642 213.352 271.637 214.128L268.644 222.23L274.271 223.479L278.39 215.602C279.886 215.353 281.335 214.879 282.689 214.195L284.467 220.115L291.151 214.87L290.712 207.893C292.074 206.368 293.308 204.735 294.404 203.009L299.929 203.279L303.801 194.602L298.995 192.588C299.493 190.79 299.81 188.946 299.941 187.085L305.95 181.593ZM285.547 204.719C280.427 208.748 275.52 207.657 274.586 202.277C273.652 196.898 277.062 189.257 282.193 185.228C287.325 181.199 292.22 182.302 293.155 187.681C294.089 193.06 290.679 200.691 285.547 204.719Z" fill="#EBEBEB"/>
<path d="M283.33 169.788L276.026 165.579L269.342 170.834L276.645 175.043L283.33 169.788Z" fill="#F5F5F5"/>
<path d="M269.342 170.834L269.78 177.812L277.084 182.021L276.645 175.043L269.342 170.834Z" fill="#E0E0E0"/>
<path d="M273.393 186.905L266.089 182.696L260.575 182.426L267.867 186.635L273.393 186.905Z" fill="#F5F5F5"/>
<path d="M260.575 182.426L256.703 191.091L263.996 195.3L267.867 186.635L260.575 182.426Z" fill="#E0E0E0"/>
<path d="M267.8 202.817L260.507 198.609L254.487 204.145L261.779 208.354L267.8 202.817Z" fill="#F5F5F5"/>
<path d="M262.994 215.377L255.691 211.168L254.487 204.145L261.779 208.354L262.994 215.377Z" fill="#E0E0E0"/>
<path d="M293.526 166.457L286.222 162.248L291.804 163.497L299.096 167.706L293.526 166.457Z" fill="#F5F5F5"/>
<path d="M265.954 145.558V135.081L257.615 138.84C257.173 137.062 256.411 135.38 255.364 133.877L260.62 123.287L254.205 119.585L247.655 129.432C245.83 129.272 243.991 129.452 242.231 129.961L241.308 120.856L232.238 126.101L231.326 136.229C229.352 137.978 227.537 139.899 225.902 141.968L219.352 139.718L212.938 150.836L218.182 155.338C217.213 157.788 216.46 160.319 215.931 162.9L207.592 168.764V179.252L215.931 175.493C216.373 177.271 217.136 178.953 218.182 180.456L212.96 191.057L219.375 194.76L225.924 184.913C227.75 185.072 229.589 184.892 231.349 184.384L232.26 193.488L241.331 188.244L242.254 178.115C245.085 177.082 247.593 175.32 249.524 173.006L254.228 174.661L260.642 163.553L256.703 160.177C257.559 157.362 257.875 154.41 257.638 151.478L265.954 145.558ZM236.773 171.735C229.818 175.752 225.519 172.86 225.519 164.859C225.519 156.857 231.27 146.965 238.236 142.947C245.202 138.93 249.411 141.822 249.411 149.891C249.411 157.96 243.739 167.706 236.773 171.735Z" fill="#E0E0E0"/>
<path d="M261.498 123.782L254.205 119.585L247.656 129.432L254.948 133.641L261.498 123.782Z" fill="#F5F5F5"/>
<path d="M273.258 139.29L265.954 135.081L257.615 138.84L264.919 143.049L273.258 139.29Z" fill="#F5F5F5"/>
<path d="M239.53 197.697L232.238 193.488L231.326 184.384L238.619 188.593L239.53 197.697Z" fill="#E0E0E0"/>
<path d="M212.927 191.057L220.23 195.266L225.486 184.676L218.182 180.468L212.927 191.057Z" fill="#E0E0E0"/>
<path d="M273.258 149.824V139.346L264.919 143.071C264.482 141.292 263.719 139.609 262.668 138.108L267.924 127.519L261.509 123.805L254.959 133.663C253.134 133.498 251.294 133.678 249.535 134.192L248.612 125.065L239.542 130.309L238.619 140.438C236.647 142.19 234.833 144.11 233.194 146.177L226.645 143.927L220.23 155.045L225.486 159.547C224.511 161.996 223.758 164.526 223.235 167.109L214.896 172.973V183.461L223.235 179.702C223.672 181.482 224.435 183.164 225.486 184.665L220.23 195.255L226.645 198.957L233.194 189.11C235.02 189.27 236.859 189.091 238.619 188.582L239.542 197.686L248.612 192.442L249.524 182.313C251.498 180.564 253.313 178.643 254.948 176.574L261.498 178.824L267.912 167.717L262.657 163.216C263.631 160.767 264.384 158.236 264.908 155.653L273.258 149.824ZM244.077 176C237.111 180.017 231.461 176.754 231.461 168.719C231.461 160.683 237.088 150.904 244.077 146.875C251.065 142.846 256.681 146.121 256.681 154.156C256.681 162.191 251.032 171.915 244.077 175.944V176Z" fill="#EBEBEB"/>
<path d="M225.902 141.991L233.194 146.2L226.645 143.915L219.352 139.695L225.902 141.991Z" fill="#F0F0F0"/>
<path d="M219.351 139.707L212.935 150.829L220.236 155.041L226.653 143.919L219.351 139.707Z" fill="#F5F5F5"/>
<path d="M212.927 150.814L220.23 155.023L225.486 159.547L218.182 155.349L212.927 150.814Z" fill="#E0E0E0"/>
<path d="M215.931 162.912L223.235 167.121L214.896 172.984L207.592 168.775L215.931 162.912Z" fill="#F5F5F5"/>
<path d="M207.592 168.775L214.896 172.984V183.472L207.592 179.263V168.775Z" fill="#E0E0E0"/>
<path d="M248.612 125.065L241.308 120.856L232.238 126.101L239.53 130.309L248.612 125.065Z" fill="#F5F5F5"/>
<path d="M342.244 425.597L448.029 364.512C448.262 364.43 448.464 364.277 448.607 364.076C448.75 363.874 448.826 363.633 448.826 363.386C448.826 363.139 448.75 362.898 448.607 362.697C448.464 362.495 448.262 362.343 448.029 362.261L438.249 356.634C437.644 356.329 436.975 356.17 436.297 356.17C435.619 356.17 434.95 356.329 434.344 356.634L328.525 417.663C328.292 417.745 328.09 417.897 327.948 418.099C327.805 418.301 327.728 418.541 327.728 418.789C327.728 419.036 327.805 419.277 327.948 419.478C328.09 419.68 328.292 419.832 328.525 419.914L338.339 425.541C338.94 425.854 339.606 426.023 340.284 426.033C340.963 426.042 341.634 425.893 342.244 425.597Z" fill="#E0E0E0"/>
<path d="M445.126 128.666L349.739 183.742C348.321 184.668 347.141 185.914 346.294 187.38C345.447 188.847 344.958 190.492 344.866 192.183V418.462C344.866 421.568 347.049 422.829 349.739 421.276L445.126 366.2C446.545 365.276 447.727 364.03 448.574 362.564C449.421 361.097 449.909 359.451 449.998 357.759V131.48C449.998 128.374 447.826 127.113 445.126 128.666Z" fill="#455A64"/>
<path d="M349.739 183.742L445.126 128.666C447.534 127.271 449.526 128.137 449.931 130.557C449.706 129.036 449.161 127.579 448.333 126.284C447.505 124.988 446.412 123.882 445.126 123.039L441.164 120.789C439.654 120.023 437.985 119.623 436.291 119.623C434.598 119.623 432.929 120.023 431.418 120.789L336.02 175.82C334.584 176.721 333.399 177.971 332.577 179.455L346.295 187.332C347.117 185.861 348.302 184.625 349.739 183.742Z" fill="#37474F"/>
<path d="M331.125 410.539C331.217 412.23 331.707 413.875 332.553 415.342C333.4 416.808 334.58 418.054 335.998 418.98L339.97 421.231C341.345 421.918 342.85 422.308 344.386 422.374C345.922 422.44 347.455 422.181 348.883 421.613C346.633 422.491 344.843 421.197 344.843 418.417V192.183C344.9 190.485 345.392 188.83 346.273 187.377L332.554 179.5C331.686 180.941 331.194 182.578 331.125 184.26V410.539Z" fill="#263238"/>
<path d="M352.361 213.891L442.537 161.843C444.158 160.92 445.463 161.674 445.463 163.531V331.009C445.409 332.024 445.116 333.012 444.607 333.892C444.099 334.772 443.389 335.52 442.537 336.073L352.394 388.122C350.774 389.056 349.469 388.302 349.469 386.434V218.955C349.52 217.944 349.808 216.958 350.311 216.078C350.813 215.199 351.515 214.449 352.361 213.891Z" fill="white"/>
<path d="M397.432 164.78C396.934 165.106 396.52 165.546 396.223 166.062C395.926 166.578 395.754 167.156 395.722 167.751C395.722 168.876 396.487 169.292 397.432 168.741C397.932 168.416 398.347 167.978 398.645 167.461C398.942 166.945 399.113 166.365 399.143 165.77C399.143 164.678 398.377 164.24 397.432 164.78Z" fill="#37474F"/>
<path d="M397.432 370.105C395.465 371.392 393.828 373.124 392.655 375.161C391.482 377.199 390.805 379.484 390.68 381.831C390.68 386.141 393.707 387.897 397.432 385.736C399.399 384.449 401.035 382.716 402.208 380.679C403.381 378.642 404.058 376.357 404.184 374.01C404.207 369.7 401.168 367.944 397.432 370.105Z" fill="#37474F"/>
<path d="M381.238 182.201C380.249 182.857 379.428 183.737 378.842 184.769C378.255 185.801 377.92 186.957 377.862 188.143C377.862 190.326 379.392 191.215 381.238 190.123C382.237 189.473 383.069 188.596 383.666 187.563C384.262 186.531 384.606 185.372 384.67 184.181C384.67 181.998 383.14 181.109 381.238 182.201Z" fill="#37474F"/>
<path d="M389.645 181.458C389.645 182.921 390.77 183.472 392.087 182.696L414.594 169.675C415.291 169.24 415.876 168.646 416.3 167.942C416.725 167.238 416.977 166.444 417.036 165.624C417.036 164.172 415.911 163.621 414.594 164.397L392.087 177.418C391.391 177.852 390.807 178.444 390.383 179.146C389.959 179.848 389.706 180.64 389.645 181.458Z" fill="#37474F"/>
<path d="M338.732 221.139C339.531 221.659 340.196 222.36 340.673 223.185C341.15 224.01 341.426 224.936 341.478 225.888C341.478 227.643 340.252 228.352 338.732 227.474C337.937 226.952 337.274 226.251 336.799 225.426C336.324 224.601 336.05 223.676 335.998 222.725C335.998 220.981 337.224 220.272 338.732 221.139Z" fill="#37474F"/>
<path d="M338.732 242.273C339.531 242.793 340.196 243.494 340.673 244.32C341.15 245.145 341.426 246.071 341.478 247.022C341.478 248.767 340.252 249.476 338.732 248.609C337.937 248.087 337.274 247.385 336.799 246.56C336.324 245.735 336.05 244.81 335.998 243.86C335.998 242.104 337.224 241.395 338.732 242.273Z" fill="#37474F"/>
<path d="M337.877 221.566C338.676 222.086 339.341 222.787 339.818 223.613C340.295 224.438 340.571 225.364 340.623 226.315C340.623 228.06 339.397 228.769 337.877 227.902C337.079 227.382 336.414 226.681 335.937 225.856C335.46 225.031 335.184 224.105 335.131 223.153C335.143 221.397 336.369 220.722 337.877 221.566Z" fill="#455A64"/>
<path d="M337.877 242.69C338.677 243.211 339.343 243.914 339.82 244.741C340.297 245.568 340.573 246.496 340.623 247.45C340.623 249.194 339.397 249.903 337.877 249.025C337.077 248.507 336.411 247.807 335.933 246.981C335.456 246.156 335.181 245.229 335.131 244.276C335.143 242.532 336.369 241.823 337.877 242.69Z" fill="#455A64"/>
<path d="M463.717 168.831C463.717 166.963 462.411 166.209 460.791 167.143L449.998 173.366L370.648 219.192C369.796 219.746 369.086 220.493 368.578 221.373C368.069 222.253 367.776 223.241 367.722 224.256V391.689C367.722 393.558 369.028 394.312 370.648 393.378L450.032 347.541L460.791 341.329C461.643 340.775 462.352 340.028 462.861 339.148C463.369 338.267 463.663 337.28 463.717 336.265V168.831Z" fill="white"/>
<path d="M464.842 168.831C464.913 168.267 464.816 167.694 464.563 167.185C464.31 166.675 463.912 166.252 463.42 165.967C462.927 165.682 462.362 165.549 461.794 165.584C461.226 165.619 460.682 165.821 460.228 166.164L449.931 172.117L370.085 218.258C369.057 218.907 368.203 219.796 367.595 220.849C366.987 221.901 366.645 223.086 366.597 224.301V391.689C366.552 392.251 366.66 392.815 366.909 393.32C367.159 393.826 367.541 394.254 368.015 394.559C368.418 394.793 368.877 394.914 369.343 394.908C370.002 394.887 370.646 394.698 371.211 394.357L451.112 348.216L461.387 342.285C462.409 341.63 463.259 340.74 463.866 339.688C464.473 338.637 464.82 337.455 464.876 336.242L464.842 168.831ZM449.953 346.292L449.031 346.832L370.13 392.387C369.998 392.489 369.844 392.56 369.681 392.595C369.517 392.63 369.348 392.628 369.185 392.59C369.039 392.5 368.892 392.185 368.892 391.667V224.256C368.951 223.439 369.194 222.646 369.603 221.936C370.012 221.226 370.578 220.619 371.256 220.16L450.077 174.582L461.331 168.066C461.464 167.964 461.617 167.893 461.781 167.858C461.944 167.823 462.113 167.825 462.276 167.863C462.423 167.953 462.569 168.268 462.569 168.786V336.265C462.511 337.082 462.268 337.875 461.858 338.585C461.449 339.294 460.884 339.902 460.206 340.361L449.931 346.292H449.953Z" fill="#00C853"/>
<path d="M415.719 207.735C425.848 201.906 434.007 206.61 434.007 218.303C434.007 229.995 425.814 244.186 415.719 249.971C405.625 255.755 397.432 251.096 397.432 239.415C397.432 227.733 405.625 213.576 415.719 207.735Z" fill="#00C853"/>
<path d="M415.719 216.918C418.994 215.028 421.65 216.558 421.65 220.295C421.539 222.353 420.944 224.356 419.913 226.141C418.883 227.926 417.446 229.443 415.719 230.569C412.445 232.46 409.789 230.929 409.789 227.193C409.9 225.135 410.495 223.132 411.525 221.347C412.556 219.561 413.993 218.044 415.719 216.918Z" fill="#00C853"/>
<path d="M427.277 237.085C427.277 230.873 422.922 228.352 417.531 231.458L414.155 233.405C408.776 236.511 404.409 244.074 404.409 250.286V251.963C407.527 252.987 411.443 252.435 415.663 249.971C420.338 247.087 424.292 243.172 427.221 238.526L427.277 237.085Z" fill="#00C853"/>
<path opacity="0.7" d="M415.719 216.918C418.994 215.028 421.65 216.558 421.65 220.295C421.539 222.353 420.944 224.356 419.913 226.141C418.883 227.926 417.446 229.443 415.719 230.569C412.445 232.46 409.789 230.929 409.789 227.193C409.9 225.135 410.495 223.132 411.525 221.347C412.556 219.561 413.993 218.044 415.719 216.918Z" fill="white"/>
<path opacity="0.7" d="M427.277 237.085C427.277 230.873 422.922 228.352 417.531 231.458L414.155 233.405C408.776 236.511 404.409 244.074 404.409 250.286V251.963C407.527 252.987 411.443 252.435 415.663 249.971C420.338 247.087 424.292 243.172 427.221 238.526L427.277 237.085Z" fill="white"/>
<path d="M380.338 275.686L403.869 262.102C404.995 261.483 405.816 261.979 405.816 263.228V264.004C405.78 264.681 405.586 265.339 405.247 265.926C404.909 266.512 404.437 267.011 403.869 267.38L380.338 280.964C379.268 281.583 378.391 281.076 378.391 279.838V279.062C378.427 278.386 378.622 277.728 378.961 277.141C379.299 276.555 379.771 276.056 380.338 275.686Z" fill="#00C853"/>
<path opacity="0.1" d="M380.338 275.686L403.869 262.102C404.995 261.483 405.816 261.979 405.816 263.228V264.004C405.78 264.681 405.586 265.339 405.247 265.926C404.909 266.512 404.437 267.011 403.869 267.38L380.338 280.964C379.268 281.583 378.391 281.076 378.391 279.838V279.062C378.427 278.386 378.622 277.728 378.961 277.141C379.299 276.555 379.771 276.056 380.338 275.686Z" fill="black"/>
<path d="M379.37 292.082L450.561 250.984C451.09 250.668 451.529 250.916 451.529 251.546V259.851C451.509 260.189 451.411 260.516 451.243 260.809C451.075 261.102 450.842 261.352 450.561 261.54L379.37 302.638C378.83 302.953 378.391 302.695 378.391 302.076V293.77C378.41 293.432 378.509 293.103 378.679 292.809C378.849 292.516 379.086 292.267 379.37 292.082Z" fill="#00C853"/>
<path opacity="0.2" d="M379.37 292.082L450.561 250.984C451.09 250.668 451.529 250.916 451.529 251.546V259.851C451.509 260.189 451.411 260.516 451.243 260.809C451.075 261.102 450.842 261.352 450.561 261.54L379.37 302.638C378.83 302.953 378.391 302.695 378.391 302.076V293.77C378.41 293.432 378.509 293.103 378.679 292.809C378.849 292.516 379.086 292.267 379.37 292.082Z" fill="white"/>
<path d="M380.338 312.632L403.869 299.048C404.995 298.429 405.816 298.936 405.816 300.174V300.95C405.781 301.627 405.587 302.285 405.248 302.872C404.91 303.459 404.437 303.957 403.869 304.326L380.338 317.91C379.268 318.54 378.391 318.033 378.391 316.784V316.008C378.429 315.332 378.625 314.675 378.963 314.088C379.301 313.502 379.772 313.003 380.338 312.632Z" fill="#00C853"/>
<path opacity="0.1" d="M380.338 312.632L403.869 299.048C404.995 298.429 405.816 298.936 405.816 300.174V300.95C405.781 301.627 405.587 302.285 405.248 302.872C404.91 303.459 404.437 303.957 403.869 304.326L380.338 317.91C379.268 318.54 378.391 318.033 378.391 316.784V316.008C378.429 315.332 378.625 314.675 378.963 314.088C379.301 313.502 379.772 313.003 380.338 312.632Z" fill="black"/>
<path d="M379.37 329.028L450.561 287.93C451.09 287.615 451.529 287.873 451.529 288.492V296.798C451.509 297.135 451.411 297.463 451.243 297.756C451.075 298.048 450.842 298.298 450.561 298.486L379.37 339.585C378.83 339.9 378.391 339.652 378.391 339.022V330.717C378.41 330.378 378.509 330.049 378.679 329.756C378.849 329.462 379.086 329.213 379.37 329.028Z" fill="#00C853"/>
<path opacity="0.2" d="M379.37 329.028L450.561 287.93C451.09 287.615 451.529 287.873 451.529 288.492V296.798C451.509 297.135 451.411 297.463 451.243 297.756C451.075 298.048 450.842 298.298 450.561 298.486L379.37 339.585C378.83 339.9 378.391 339.652 378.391 339.022V330.717C378.41 330.378 378.509 330.049 378.679 329.756C378.849 329.462 379.086 329.213 379.37 329.028Z" fill="white"/>
<path d="M407.763 333.744L435.898 317.527C437.023 316.897 437.856 317.403 437.856 318.652V327.34C437.819 328.018 437.622 328.677 437.282 329.263C436.941 329.85 436.467 330.348 435.898 330.716L407.763 346.944C406.638 347.563 405.816 347.057 405.816 345.819V337.12C405.855 336.444 406.052 335.787 406.39 335.201C406.728 334.615 407.198 334.116 407.763 333.744Z" fill="#00C853"/>
<path opacity="0.1" d="M407.763 333.744L435.898 317.527C437.023 316.897 437.856 317.403 437.856 318.652V327.34C437.819 328.018 437.622 328.677 437.282 329.263C436.941 329.85 436.467 330.348 435.898 330.716L407.763 346.944C406.638 347.563 405.816 347.057 405.816 345.819V337.12C405.855 336.444 406.052 335.787 406.39 335.201C406.728 334.615 407.198 334.116 407.763 333.744Z" fill="black"/>
<path d="M474.385 297.079C474.385 297.079 460.566 278.015 459.755 275.697C459.114 273.986 459.755 271.443 459.958 270.261C460.161 269.08 460.341 266.446 460.543 265.76C460.881 264.477 459.226 264.736 458.292 265.906C457.358 267.076 457.043 269.417 456.559 269.8C456.075 270.183 452.395 264.814 450.471 262.339C448.547 259.863 447.342 258.355 446.161 259.278C445.317 259.942 445.947 261.382 447.342 263.498C448.157 264.637 448.909 265.821 449.593 267.043C449.807 267.504 448.659 267.538 448.04 268.494C447.556 269.237 448.04 270.441 447.365 271.015C446.949 271.332 446.665 271.79 446.565 272.302C446.465 272.815 446.558 273.346 446.825 273.795C448.078 275.762 449.693 277.473 451.585 278.837C453.656 280.266 454.489 280.772 455.715 282.719C456.942 284.666 467.948 304.552 468.691 305.744C469.434 306.937 470.863 309.368 473.035 309.436C475.207 309.503 492.988 294.198 493.899 293.433C496.825 290.991 497.759 290.642 498.255 292.836C498.426 293.617 498.553 294.405 498.637 295.2C498.986 297.991 500.888 307.961 500.888 307.961C500.888 307.961 509.891 312.317 517.285 310.212C524.678 308.108 527.177 304.968 527.177 304.968L523.474 298.936C524.476 296.449 529.101 286.365 530.598 279.309L507.415 275.562C506.942 275.461 506.177 275.269 505.164 275.01C503.893 274.673 500.663 273.559 498.221 275.697C490.253 282.64 474.408 297.079 474.408 297.079" fill="#FFA8A7"/>
<path d="M520.346 414.051L516.193 419.824C518.08 420.705 520.143 421.148 522.225 421.118C525.95 421.253 526.974 419.993 527.109 419.745C527.739 418.395 526.76 415.964 526.49 413.871L520.346 414.051Z" fill="#37474F"/>
<path d="M516.429 417.056C516.429 417.056 511.388 416.729 507.91 416.302C504.433 415.874 501.676 417.562 502.486 418.991C503.296 420.42 505.221 421.613 508.214 422.615C510.769 423.481 513.841 424.1 516.497 424.866C519.153 425.631 520.999 426.632 522.54 426.092C524.262 425.496 525.005 424.809 524.859 423.549C524.483 421.756 524.017 419.983 523.463 418.237L516.429 417.056Z" fill="#37474F"/>
<path d="M527.109 408.255C527.109 408.255 526.479 413.499 526.434 414.625C526.389 415.75 521.314 416.11 520.346 414.051L520.188 407.636L527.109 408.255Z" fill="#F28F8F"/>
<path d="M522 411.474L523.812 419.441C523.812 419.441 523.981 420.409 519.839 421.028C515.698 421.647 509.193 418.856 508.079 418.293C506.965 417.731 506.841 416.594 510.915 416.819C514.989 417.044 516.429 417.056 516.429 417.056L515.101 413.533L522 411.474Z" fill="#FFA8A7"/>
<path d="M530.53 279.242L533.4 278.443C533.4 278.443 539.398 297.428 540.062 299.262C540.726 301.097 541.48 303.032 540.186 305.294C538.644 307.984 530.53 318.799 530.53 318.799L525.376 313.757L531.228 303.044L526.051 292.578L530.53 279.242Z" fill="#F28F8F"/>
<path d="M501.057 254.585C500.384 253.322 500.043 251.909 500.064 250.478C500.086 249.047 500.47 247.645 501.181 246.403C504.039 241.103 510.409 238.526 517.994 239.505C521.505 239.966 525.646 242.881 527.908 247.236C530.407 252.064 530.643 261.787 531.284 265.467L501.057 254.585Z" fill="#37474F"/>
<path d="M500.854 256.667C500.854 256.667 499.053 260.099 499.369 260.414C499.835 260.687 500.345 260.877 500.877 260.977L500.854 256.667Z" fill="#FFA8A7"/>
<path d="M506.324 245.818C504.365 247.09 500.989 249.431 500.843 257.139C500.685 265.017 501.811 267.617 502.981 268.528C503.769 269.147 508.394 268.832 510.375 268.371C512.356 267.909 518.061 265.085 520.121 260.797C522.54 255.755 522.045 248.418 518.455 246.167C516.628 245.087 514.556 244.488 512.434 244.427C510.312 244.366 508.21 244.844 506.324 245.818Z" fill="#FFA8A7"/>
<path d="M527.109 304.923C530.575 310.325 533.861 315.051 534.582 321.151C536.067 333.969 531.205 348.621 530.159 358.108C532.127 360.807 533.262 364.023 533.422 367.359C533.422 371.286 527.109 408.255 527.109 408.255C527.109 408.255 522.517 409.651 520.188 407.636L515.855 339.63L518.106 331.347L527.109 304.923Z" fill="#00C853"/>
<path opacity="0.2" d="M527.109 304.923C530.575 310.325 533.861 315.051 534.582 321.151C536.067 333.969 531.205 348.621 530.159 358.108C532.127 360.807 533.262 364.023 533.422 367.359C533.422 371.286 527.109 408.255 527.109 408.255C527.109 408.255 522.517 409.651 520.188 407.636L515.855 339.63L518.106 331.347L527.109 304.923Z" fill="black"/>
<path d="M515.855 339.63L518.106 331.347C522.416 330.212 526.572 328.561 530.485 326.429C530.485 326.429 528.144 330.694 521.415 333.035L517.937 343.67L517.645 368.034L515.855 339.63Z" fill="#00C853"/>
<path opacity="0.3" d="M515.855 339.63L518.106 331.347C522.416 330.212 526.572 328.561 530.485 326.429C530.485 326.429 528.144 330.694 521.415 333.035L517.937 343.67L517.645 368.034L515.855 339.63Z" fill="black"/>
<path d="M527.109 304.923C528.966 307.961 533.4 313.138 532.455 318.124C531.329 324.156 528.066 328.398 518.14 331.347L508.822 365.108C508.822 365.108 513.672 369.61 515.158 373.965C516.643 378.32 522 411.496 522 411.496C522 411.496 520.334 414.208 515.101 413.556C515.101 413.556 496.859 371.917 495.576 369.205C494.019 366.458 493.473 363.252 494.034 360.145C494.608 355.779 500.787 307.984 500.787 307.984L527.109 304.923Z" fill="#00C853"/>
<path opacity="0.2" d="M527.109 304.923C528.966 307.961 533.4 313.138 532.455 318.124C531.329 324.156 528.066 328.398 518.14 331.347L508.822 365.108C508.822 365.108 513.672 369.61 515.158 373.965C516.643 378.32 522 411.496 522 411.496C522 411.496 520.334 414.208 515.101 413.556C515.101 413.556 496.859 371.917 495.576 369.205C494.019 366.458 493.473 363.252 494.034 360.145C494.608 355.779 500.787 307.984 500.787 307.984L527.109 304.923Z" fill="black"/>
<path d="M530.53 279.242L507.348 275.494C506.875 275.393 506.11 275.202 505.097 274.943C505.097 274.943 504.106 289.483 498.153 292.814C498.299 293.512 498.423 294.288 498.536 295.177C498.885 297.968 500.787 307.939 500.787 307.939C500.787 307.939 509.79 312.294 517.183 310.19C524.577 308.085 527.075 304.945 527.075 304.945L523.373 298.913C524.408 296.404 529.067 286.32 530.53 279.242Z" fill="#00C853"/>
<path opacity="0.7" d="M530.53 279.242L507.348 275.494C506.875 275.393 506.11 275.202 505.097 274.943C505.097 274.943 504.106 289.483 498.153 292.814C498.299 293.512 498.423 294.288 498.536 295.177C498.885 297.968 500.787 307.939 500.787 307.939C500.787 307.939 509.79 312.294 517.183 310.19C524.577 308.085 527.075 304.945 527.075 304.945L523.373 298.913C524.408 296.404 529.067 286.32 530.53 279.242Z" fill="white"/>
<path d="M524.42 296.516C521.341 298.365 518.115 299.957 514.775 301.277C517.807 301.216 520.774 300.396 523.407 298.891L524.42 296.516Z" fill="#00C853"/>
<path d="M505.75 246.201C505.75 246.201 504.624 253.516 507.28 257.815C507.28 257.815 508.27 254.9 510.735 255.451C513.199 256.003 513.335 259.255 511.601 261.078C511.161 261.59 510.585 261.967 509.94 262.166C509.295 262.365 508.607 262.378 507.955 262.204C507.955 262.204 507.561 267.493 507.348 271.927C507.134 276.361 505.963 286.028 510.949 289.933C515.934 293.838 528.448 295.211 534.312 287.018C537.575 282.46 533.242 274.403 531.228 265.366C529.371 257.061 528.325 244.749 519.513 242.768C510.701 240.788 505.75 246.201 505.75 246.201Z" fill="#37474F"/>
<path d="M538.082 146.256L536.225 147.381C536.381 146.721 536.467 146.046 536.484 145.367C536.484 141.597 533.839 140.078 530.575 141.991C529.582 142.59 528.696 143.351 527.953 144.242C527.953 139.177 524.397 137.118 520.008 139.65C517.695 141.158 515.771 143.191 514.39 145.582C513.01 147.973 512.212 150.656 512.063 153.413C512.063 153.672 512.063 153.92 512.063 154.167C510.932 154.025 509.788 154.288 508.833 154.91C507.113 156.031 505.682 157.541 504.656 159.318C503.629 161.096 503.036 163.09 502.925 165.14C502.924 165.616 502.973 166.092 503.071 166.558L502.081 167.132C499.391 168.685 497.208 171.712 497.208 173.884C497.208 176.056 499.391 176.574 502.081 175.009L538.093 154.246C540.783 152.693 542.966 149.666 542.966 147.494C542.966 145.322 540.771 144.692 538.082 146.256Z" fill="#EBEBEB"/>
</svg>
