<svg width="16" height="17" viewBox="0 0 16 17" fill="none" xmlns="http://www.w3.org/2000/svg">
<path d="M8.00016 1.38086C8.75792 1.38086 9.48465 1.68188 10.0205 2.2177C10.5563 2.75352 10.8573 3.48024 10.8573 4.238V6.14276C10.8573 6.90053 10.5563 7.62725 10.0205 8.16307C9.48465 8.69889 8.75792 8.99991 8.00016 8.99991C7.2424 8.99991 6.51567 8.69889 5.97986 8.16307C5.44404 7.62725 5.14302 6.90053 5.14302 6.14276V4.238C5.14302 3.48024 5.44404 2.75352 5.97986 2.2177C6.51567 1.68188 7.2424 1.38086 8.00016 1.38086V1.38086ZM14.6668 14.7142V14.0209C14.6668 10.9856 11.1564 8.99991 8.00016 8.99991C4.84397 8.99991 1.3335 10.9856 1.3335 14.0209V14.7142C1.3335 14.9668 1.43384 15.209 1.61244 15.3876C1.79105 15.5662 2.03329 15.6666 2.28588 15.6666H13.7144C13.967 15.6666 14.2093 15.5662 14.3879 15.3876C14.5665 15.209 14.6668 14.9668 14.6668 14.7142Z" stroke="black" stroke-linecap="round" stroke-linejoin="round"/>
</svg>
