<svg width="23" height="19" viewBox="0 0 23 19" fill="none" xmlns="http://www.w3.org/2000/svg">
<path d="M22.9321 3.1274C22.0732 3.49323 21.1624 3.73349 20.2298 3.84023C21.2128 3.27412 21.9485 2.38316 22.2998 1.3334C21.3773 1.86207 20.366 2.23257 19.3118 2.43298C18.6038 1.70344 17.6652 1.21961 16.6422 1.0567C15.6191 0.893789 14.5688 1.06093 13.6545 1.53214C12.7403 2.00335 12.0133 2.75222 11.5866 3.66234C11.1599 4.57246 11.0574 5.59283 11.2951 6.56482C9.42434 6.47452 7.59422 6.00638 5.92354 5.19078C4.25287 4.37519 2.77899 3.23037 1.5976 1.83065C1.17942 2.5223 0.95967 3.30856 0.960846 4.1089C0.960846 5.67973 1.7911 7.06748 3.05335 7.87998C2.30636 7.85734 1.57581 7.66308 0.922596 7.3134V7.36973C0.922821 8.41591 1.29876 9.42982 1.98667 10.2395C2.67459 11.0493 3.63214 11.605 4.69697 11.8125C4.00354 11.9934 3.27644 12.0201 2.57072 11.8905C2.87095 12.791 3.4561 13.5785 4.24426 14.1428C5.03242 14.7072 5.98411 15.02 6.96609 15.0376C5.99014 15.7757 4.87267 16.3213 3.67759 16.6433C2.4825 16.9652 1.23324 17.0572 0.0012207 16.9139C2.15188 18.2458 4.65545 18.9529 7.21247 18.9506C15.8671 18.9506 20.6 12.0465 20.6 6.0589C20.6 5.8639 20.5943 5.66673 20.5853 5.4739C21.5066 4.83275 22.3016 4.0385 22.9332 3.12848L22.9321 3.1274Z" fill="white"/>
</svg>
