<svg width="216" height="57" viewBox="0 0 216 57" fill="none" xmlns="http://www.w3.org/2000/svg">
<g clip-path="url(#clip0)">
<path d="M2.21564 47.5322C1.88639 47.5322 1.58667 47.4775 1.31653 47.3677C1.04638 47.2496 0.809982 47.0932 0.607364 46.8991C0.413199 46.7051 0.261237 46.4772 0.151475 46.2152C0.0501658 45.9452 -0.000488281 45.6539 -0.000488281 45.3414V43.29H0.696012V45.3414C0.696012 45.7466 0.822646 46.0758 1.07592 46.3291C1.32919 46.5824 1.6669 46.7093 2.08901 46.7093H10.4343C10.6791 46.7093 10.8902 46.6204 11.0675 46.4431C11.2448 46.2657 11.3334 46.0546 11.3334 45.81V44.9742C11.3334 44.7042 11.2406 44.4763 11.0549 44.2903C10.8691 44.1046 10.6412 44.0119 10.371 44.0119H4.65974L4.15319 43.5304L7.34439 39.7948L7.85094 40.2634L5.31822 43.252H10.3583C10.5863 43.252 10.8016 43.2984 11.0042 43.3914C11.2068 43.4757 11.3841 43.5938 11.5361 43.7457C11.688 43.8976 11.8062 44.075 11.8906 44.2777C11.9835 44.4801 12.0299 44.6955 12.0299 44.9237V45.6832C12.0299 45.9706 12.127 46.2152 12.3212 46.418C12.5238 46.612 12.7687 46.7093 13.0557 46.7093H13.4356C13.4863 46.7093 13.5285 46.7301 13.5623 46.7723C13.596 46.8065 13.6129 46.8482 13.6129 46.8991V47.3548C13.6129 47.4729 13.5538 47.5322 13.4356 47.5322H13.1823C12.8784 47.5322 12.5998 47.4604 12.3465 47.3168C12.0932 47.1737 11.8864 46.9584 11.726 46.6713C11.574 46.9584 11.3799 47.1737 11.1435 47.3168C10.9155 47.4604 10.6538 47.5322 10.3583 47.5322H2.21564ZM3.77327 42.049L6.17937 39.1869L6.5846 39.529L4.15319 42.3908L3.77327 42.049Z" fill="white"/>
<path d="M15.1408 42.3024H16.0906V41.3526H15.1408V42.3024ZM17.8635 47.3553C17.8635 47.4734 17.8044 47.5326 17.6862 47.5326H16.9517C16.8082 47.5326 16.6646 47.5114 16.5211 47.4692C16.3776 47.4271 16.2425 47.3678 16.1159 47.2919C15.9893 47.2159 15.8795 47.1271 15.7866 47.026C15.6938 46.9159 15.6305 46.7978 15.5967 46.6714C15.4447 46.9246 15.2379 47.1312 14.9762 47.2919C14.7229 47.4525 14.4485 47.5326 14.153 47.5326H13.4312C13.313 47.5326 13.2539 47.4734 13.2539 47.3553V46.8867C13.2539 46.7686 13.313 46.7093 13.4312 46.7093H14.153C14.4232 46.7093 14.6596 46.6246 14.8622 46.456C15.0648 46.2874 15.1914 46.0763 15.2421 45.823L15.622 43.9106L16.3059 44.0245L15.9893 45.6202C15.9639 45.7638 15.9724 45.9031 16.0146 46.0383C16.0568 46.1648 16.1201 46.2787 16.2045 46.3801C16.2974 46.4815 16.4071 46.5616 16.5338 46.6205C16.6689 46.6797 16.8124 46.7093 16.9643 46.7093H17.6862C17.8044 46.7093 17.8635 46.7686 17.8635 46.8867V47.3553Z" fill="white"/>
<path d="M18.5379 50.0014H19.4877V49.0517H18.5379V50.0014ZM20.1462 50.0014H21.096V49.0517H20.1462V50.0014ZM22.0963 47.3546C22.0963 47.4727 22.0373 47.5319 21.9191 47.5319H21.1846C21.0411 47.5319 20.8976 47.5107 20.754 47.4689C20.6105 47.4267 20.4754 47.3675 20.3488 47.2915C20.2222 47.2156 20.1124 47.1267 20.0195 47.0253C19.9267 46.9156 19.8634 46.7975 19.8296 46.671C19.6776 46.9243 19.4708 47.1309 19.2091 47.2915C18.9558 47.4518 18.6814 47.5319 18.3859 47.5319H17.6641C17.5459 47.5319 17.4868 47.4727 17.4868 47.3546V46.8864C17.4868 46.7683 17.5459 46.709 17.6641 46.709H18.3859C18.6561 46.709 18.8925 46.6243 19.0951 46.4557C19.2977 46.2867 19.4244 46.0756 19.475 45.8223L19.8549 43.9103L20.5388 44.0242L20.2222 45.6199C20.1968 45.7631 20.2053 45.9024 20.2475 46.0376C20.2897 46.1645 20.353 46.2784 20.4375 46.3798C20.5303 46.4808 20.64 46.5609 20.7667 46.6202C20.9018 46.6794 21.0453 46.709 21.1973 46.709H21.9191C22.0373 46.709 22.0963 46.7683 22.0963 46.8864V47.3546Z" fill="white"/>
<path d="M22.8305 42.3024H23.7803V41.3526H22.8305V42.3024ZM24.4388 42.3024H25.3886V41.3526H24.4388V42.3024ZM26.351 47.3553C26.351 47.4734 26.2918 47.5326 26.1737 47.5326H25.4392C25.2958 47.5326 25.1521 47.5114 25.0087 47.4692C24.8653 47.4271 24.7301 47.3678 24.6035 47.2919C24.4768 47.2159 24.3669 47.1271 24.2742 47.026C24.1814 46.9159 24.1181 46.7978 24.0842 46.6714C23.9323 46.9246 23.7256 47.1312 23.4637 47.2919C23.2104 47.4525 22.9359 47.5326 22.6406 47.5326H21.9187C21.8005 47.5326 21.7415 47.4734 21.7415 47.3553V46.8867C21.7415 46.7686 21.8005 46.7093 21.9187 46.7093H22.6406C22.9106 46.7093 23.1471 46.6246 23.3498 46.456C23.5524 46.2874 23.679 46.0763 23.7297 45.823L24.1096 43.9106L24.7934 44.0245L24.4768 45.6202C24.4515 45.7638 24.46 45.9031 24.5021 46.0383C24.5443 46.1648 24.6076 46.2787 24.6921 46.3801C24.7849 46.4815 24.8947 46.5616 25.0213 46.6205C25.1565 46.6797 25.2999 46.7093 25.4519 46.7093H26.1737C26.2918 46.7093 26.351 46.7686 26.351 46.8867V47.3553Z" fill="white"/>
<path d="M27.345 44.0118L26.8258 43.5303L30.017 39.7947L30.5236 40.2633L27.9908 43.252H33.0436C33.2716 43.252 33.4868 43.2983 33.6895 43.3913C33.8921 43.4756 34.0694 43.5937 34.2213 43.7456C34.3733 43.8979 34.4917 44.0749 34.5759 44.2777C34.669 44.4804 34.7152 44.6954 34.7152 44.9236V45.8604C34.7152 46.0887 34.669 46.304 34.5759 46.5064C34.4917 46.7092 34.3733 46.8865 34.2213 47.0384C34.0694 47.1903 33.8921 47.313 33.6895 47.4056C33.4868 47.4899 33.2716 47.5321 33.0436 47.5321H26.1673C26.1166 47.5321 26.0745 47.5154 26.0406 47.4816C26.0071 47.4394 25.99 47.3927 25.99 47.3422V46.8865C25.99 46.7684 26.0492 46.7092 26.1673 46.7092H33.1196C33.3646 46.7092 33.5755 46.6203 33.7528 46.443C33.9301 46.266 34.0187 46.0545 34.0187 45.8099V44.9741C34.0187 44.7041 33.926 44.4763 33.7401 44.2902C33.5546 44.1045 33.3267 44.0118 33.0563 44.0118H27.345Z" fill="white"/>
<path d="M34.1268 50.6602L33.8989 49.9383L35.3426 49.4697C35.7225 49.3433 36.0264 49.1192 36.2543 48.7987C36.4823 48.4778 36.5963 48.1148 36.5963 47.7096V43.8218H37.2928V47.6591C37.2928 47.9462 37.2506 48.2204 37.1661 48.482C37.0816 48.752 36.9594 48.9973 36.7989 49.2164C36.6384 49.4359 36.4443 49.6304 36.2164 49.799C35.9969 49.9763 35.7519 50.1115 35.4819 50.2042L34.1268 50.6602Z" fill="white"/>
<path d="M41.8325 47.3551C41.8325 47.4733 41.7732 47.5321 41.6551 47.5321H41.1486C40.8953 47.5321 40.6545 47.4858 40.4267 47.3931C40.2072 47.2917 40.0128 47.1611 39.8441 47.0005C39.6835 46.8319 39.5529 46.6374 39.4515 46.4179C39.3584 46.1901 39.3125 45.9493 39.3125 45.696V39.3011H40.009V45.696C40.009 45.9748 40.1058 46.2151 40.3002 46.4179C40.5026 46.612 40.7434 46.7092 41.0217 46.7092H41.6551C41.7057 46.7092 41.7478 46.7305 41.7816 46.7726C41.8154 46.8064 41.8325 46.8486 41.8325 46.8991V47.3551Z" fill="white"/>
<path d="M44.644 46.7091H46.6069V44.9106C46.6069 44.6574 46.5184 44.4462 46.3411 44.2776C46.1637 44.1003 45.9484 44.0118 45.6951 44.0118H44.9352C44.7157 44.0118 44.5217 44.079 44.3527 44.2142C44.1925 44.3494 44.0911 44.5222 44.0489 44.7337L43.859 45.7594C43.8336 45.8858 43.8378 46.0085 43.8716 46.1266C43.905 46.2363 43.9559 46.3377 44.0235 46.4304C44.0994 46.5151 44.1883 46.5823 44.2893 46.6332C44.399 46.6837 44.5175 46.7091 44.644 46.7091ZM43.1371 45.8224L43.3904 44.5184C43.4239 44.3323 43.4873 44.1637 43.5803 44.0118C43.673 43.8599 43.7869 43.7289 43.9221 43.6191C44.0656 43.501 44.2217 43.4125 44.3907 43.3533C44.5597 43.2857 44.7366 43.2519 44.9227 43.2519H45.6317C45.8599 43.2519 46.0749 43.2982 46.2776 43.3913C46.4804 43.4756 46.6574 43.5937 46.8097 43.7456C46.9616 43.8891 47.0797 44.0623 47.164 44.2651C47.257 44.4675 47.3033 44.6828 47.3033 44.9106V46.5318C47.3033 46.8443 47.2149 47.0889 47.0375 47.2662C46.8602 47.4436 46.6111 47.532 46.2902 47.532H44.7074C44.437 47.532 44.1883 47.4648 43.9601 47.3296C43.7322 47.1944 43.559 46.9749 43.4409 46.6711C43.2974 46.9749 43.0946 47.1944 42.8333 47.3296C42.5801 47.4648 42.3139 47.532 42.0355 47.532H41.6554C41.5369 47.532 41.478 47.4728 41.478 47.3547V46.8865C41.478 46.8443 41.4951 46.8063 41.5289 46.7722C41.5623 46.7304 41.6049 46.7091 41.6554 46.7091H42.0606C42.3222 46.7091 42.5546 46.6244 42.757 46.4558C42.9682 46.2868 43.0946 46.0757 43.1371 45.8224Z" fill="white"/>
<path d="M54.9414 47.6589C54.9414 47.946 54.8951 48.2247 54.8021 48.4947C54.7182 48.7647 54.5955 49.0096 54.4349 49.2291C54.2746 49.457 54.0802 49.6556 53.8523 49.8242C53.6328 49.9932 53.3883 50.1242 53.1179 50.2168L51.763 50.6729L51.5351 49.951L52.966 49.4695C53.3458 49.343 53.6499 49.1194 53.8778 48.7985C54.1144 48.486 54.2325 48.1275 54.2325 47.7223V47.4436C54.1144 47.5028 53.9708 47.532 53.8018 47.532H52.3455C52.1006 47.532 51.8727 47.4815 51.6616 47.3801C51.4592 47.2704 51.286 47.131 51.1425 46.9624C50.9989 46.7934 50.8975 46.5952 50.8387 46.367C50.7794 46.1391 50.7711 45.9071 50.8132 45.6705L51.0285 44.5184C51.0623 44.3323 51.1258 44.1637 51.2184 44.0118C51.3115 43.8599 51.4254 43.7289 51.5602 43.6191C51.7041 43.501 51.8602 43.4125 52.0288 43.3533C52.1978 43.2857 52.3751 43.2519 52.5608 43.2519H53.2698C53.498 43.2519 53.713 43.2982 53.9157 43.3913C54.1185 43.4756 54.2955 43.5937 54.4478 43.7456C54.5997 43.8891 54.7182 44.0623 54.8021 44.2651C54.8951 44.4675 54.9414 44.6828 54.9414 44.9106V47.6589ZM54.245 46.7091V44.9106C54.245 44.6574 54.1565 44.4462 53.9792 44.2776C53.8018 44.1003 53.5865 44.0118 53.3332 44.0118H52.5733C52.3539 44.0118 52.1598 44.079 51.9908 44.2142C51.8306 44.3494 51.7295 44.5222 51.687 44.7337L51.4971 45.7594C51.4717 45.8858 51.4763 46.0085 51.5097 46.1266C51.5435 46.2363 51.5944 46.3377 51.6616 46.4304C51.7375 46.5151 51.8264 46.5823 51.9274 46.6332C52.0375 46.6837 52.1556 46.7091 52.2821 46.7091H54.245Z" fill="white"/>
<path d="M58.6045 47.3169V44.037H59.3009V47.1904C59.3009 47.427 59.3435 47.6503 59.4278 47.8615C59.5208 48.0726 59.6473 48.2541 59.8075 48.406C59.9682 48.5666 60.1539 48.6931 60.3646 48.7861C60.5758 48.8788 60.7998 48.9251 61.036 48.9251H63.2142C63.4166 48.9251 63.6065 48.8871 63.7839 48.8112C63.9612 48.7352 64.1177 48.6301 64.2525 48.4949C64.3877 48.3597 64.4932 48.2036 64.5692 48.0263C64.6451 47.8489 64.6831 47.659 64.6831 47.4563V43.8217H65.3795V45.6582C65.3795 45.8522 65.4092 46.0166 65.468 46.1518C65.536 46.287 65.6203 46.3968 65.7213 46.4811C65.8314 46.557 65.9537 46.6163 66.0885 46.6584C66.2325 46.6922 66.376 46.7093 66.5192 46.7093H67.1526C67.2707 46.7093 67.3299 46.7682 67.3299 46.8863V47.3549C67.3299 47.397 67.3128 47.4396 67.279 47.4817C67.2456 47.5155 67.2031 47.5322 67.1526 47.5322H66.5192C66.3001 47.5322 66.0847 47.4859 65.8736 47.3928C65.6625 47.2918 65.498 47.1566 65.3795 46.9877V47.5831C65.3795 47.8869 65.3207 48.1694 65.2022 48.4315C65.0928 48.6931 64.9406 48.9213 64.7465 49.1154C64.5525 49.3094 64.3201 49.4613 64.0497 49.5711C63.7884 49.6892 63.5097 49.7484 63.2142 49.7484H61.036C60.6984 49.7484 60.3817 49.685 60.0863 49.5585C59.7908 49.4317 59.5333 49.2585 59.3139 49.039C59.0944 48.8199 58.9212 48.5621 58.7944 48.2666C58.6679 47.9712 58.6045 47.6549 58.6045 47.3169ZM61.5171 42.8594H62.4669V43.8092H61.5171V42.8594Z" fill="white"/>
<path d="M70.5484 47.5323C70.2359 47.5323 69.9488 47.4606 69.6872 47.317C69.4255 47.1651 69.2102 46.9456 69.0416 46.6586C68.8726 46.9456 68.6573 47.1651 68.3953 47.317C68.134 47.4606 67.8469 47.5323 67.5344 47.5323H67.1543C67.1038 47.5323 67.0616 47.5156 67.0278 47.4818C66.9944 47.4397 66.9773 47.3972 66.9773 47.355V46.8868C66.9773 46.7687 67.0362 46.7094 67.1543 46.7094H67.6608C67.9396 46.7094 68.1803 46.608 68.3831 46.4053C68.5855 46.2029 68.6865 45.9621 68.6865 45.6837V43.8093H69.3834V45.7088C69.3834 45.9875 69.4844 46.2241 69.6872 46.4182C69.8896 46.6122 70.1262 46.7094 70.3962 46.7094H70.5735C70.8439 46.7094 71.0801 46.6248 71.2829 46.4561C71.494 46.2872 71.625 46.0718 71.6755 45.8102L72.0427 43.9107L72.7392 44.0246L72.4225 45.6074C72.3636 45.9283 72.435 46.1941 72.6378 46.4053C72.8489 46.608 73.1235 46.7094 73.4607 46.7094H73.512C73.7903 46.7094 74.0265 46.608 74.2206 46.4053C74.4234 46.2029 74.5248 45.9621 74.5248 45.6837V43.4296H75.2216V45.7597C75.2467 46.0297 75.3564 46.2575 75.5504 46.4432C75.7449 46.6206 75.9769 46.7094 76.2469 46.7094H76.7535C76.796 46.7094 76.834 46.7261 76.8678 46.7599C76.9099 46.7937 76.9312 46.8359 76.9312 46.8868V47.355C76.9312 47.3972 76.9137 47.4397 76.8799 47.4818C76.8465 47.5156 76.804 47.5323 76.7535 47.5323H76.3734C76.0612 47.5323 75.7741 47.4606 75.5125 47.317C75.2592 47.1651 75.0484 46.9456 74.8791 46.6586C74.7105 46.9456 74.4951 47.1651 74.2335 47.317C73.9718 47.4606 73.6893 47.5323 73.3851 47.5323C73.0897 47.5323 72.8155 47.4606 72.5622 47.317C72.3169 47.1739 72.1358 46.954 72.0177 46.6586C71.8483 46.954 71.6334 47.1739 71.3713 47.317C71.1181 47.4606 70.8439 47.5323 70.5484 47.5323ZM73.3342 42.3025H72.3845V41.3527H73.3342V42.3025ZM71.726 42.3025H70.7763V41.3527H71.726V42.3025ZM72.4859 40.8841H71.5362V39.9344H72.4859V40.8841Z" fill="white"/>
<path d="M77.6246 50.0014H78.5744V49.0517H77.6246V50.0014ZM79.2328 50.0014H80.1826V49.0517H79.2328V50.0014ZM81.1832 47.3546C81.1832 47.4727 81.124 47.5319 81.0059 47.5319H80.2711C80.1279 47.5319 79.984 47.5107 79.8408 47.4689C79.6973 47.4267 79.5621 47.3675 79.4356 47.2915C79.3088 47.2156 79.1991 47.1267 79.1064 47.0253C79.0134 46.9156 78.9503 46.7975 78.9161 46.671C78.7642 46.9243 78.5577 47.1309 78.2956 47.2915C78.0423 47.4518 77.7682 47.5319 77.4727 47.5319H76.7508C76.6327 47.5319 76.5735 47.4727 76.5735 47.3546V46.8864C76.5735 46.7683 76.6327 46.709 76.7508 46.709H77.4727C77.7427 46.709 77.9793 46.6243 78.1817 46.4557C78.3845 46.2867 78.511 46.0756 78.5618 45.8223L78.9416 43.9103L79.6255 44.0242L79.3088 45.6199C79.2834 45.7631 79.2921 45.9024 79.3342 46.0376C79.3764 46.1645 79.4394 46.2784 79.5241 46.3798C79.6168 46.4808 79.7269 46.5609 79.8534 46.6202C79.9885 46.6794 80.1321 46.709 80.284 46.709H81.0059C81.124 46.709 81.1832 46.7683 81.1832 46.8864V47.3546Z" fill="white"/>
<path d="M89.5536 45.696C89.5536 45.9748 89.655 46.2151 89.8578 46.4179C90.0606 46.612 90.3006 46.7092 90.5793 46.7092H90.959C91.0775 46.7092 91.1364 46.7684 91.1364 46.8865V47.3548C91.1364 47.3969 91.1197 47.4394 91.0863 47.4816C91.0521 47.5154 91.0099 47.5321 90.959 47.5321H90.7057C90.4019 47.5321 90.1232 47.4603 89.8699 47.3168C89.617 47.1649 89.41 46.9496 89.2494 46.6712C89.1062 46.9583 88.9164 47.1736 88.6798 47.3168C88.4436 47.4603 88.1778 47.5321 87.8819 47.5321H81.0055C80.955 47.5321 80.9128 47.5154 80.879 47.4816C80.8452 47.4394 80.8281 47.3927 80.8281 47.3422V46.8865C80.8281 46.7684 80.8874 46.7092 81.0055 46.7092H87.9583C88.2028 46.7092 88.414 46.6203 88.5913 46.443C88.7687 46.266 88.8571 46.0545 88.8571 45.8099V44.9741C88.8571 44.7041 88.7641 44.4763 88.5784 44.2902C88.3927 44.1045 88.1649 44.0118 87.8949 44.0118H82.1835L81.6643 43.5303L84.8557 39.7947L85.3623 40.2633L82.8294 43.252H87.8819C88.1098 43.252 88.3255 43.2983 88.5279 43.3913C88.7307 43.4756 88.9076 43.5937 89.0595 43.7456C89.2114 43.8979 89.3299 44.0749 89.4146 44.2777C89.5073 44.4804 89.5536 44.6954 89.5536 44.9236V45.696Z" fill="white"/>
<path d="M91.833 50.0014H92.7827V49.0517H91.833V50.0014ZM93.4416 50.0014H94.3913V49.0517H93.4416V50.0014ZM95.3916 47.3546C95.3916 47.4727 95.3324 47.5319 95.2143 47.5319H94.4798C94.3363 47.5319 94.1927 47.5107 94.0492 47.4689C93.9056 47.4267 93.7708 47.3675 93.644 47.2915C93.5175 47.2156 93.4074 47.1267 93.3148 47.0253C93.2217 46.9156 93.1583 46.7975 93.1249 46.671C92.973 46.9243 92.7656 47.1309 92.5044 47.2915C92.2511 47.4518 91.9765 47.5319 91.6811 47.5319H90.9592C90.8411 47.5319 90.7822 47.4727 90.7822 47.3546V46.8864C90.7822 46.7683 90.8411 46.709 90.9592 46.709H91.6811C91.9511 46.709 92.1877 46.6243 92.3905 46.4557C92.5929 46.2867 92.7197 46.0756 92.7702 45.8223L93.1503 43.9103L93.8339 44.0242L93.5175 45.6199C93.4921 45.7631 93.5005 45.9024 93.5426 46.0376C93.5848 46.1645 93.6482 46.2784 93.7329 46.3798C93.8255 46.4808 93.9353 46.5609 94.0621 46.6202C94.1969 46.6794 94.3405 46.709 94.4924 46.709H95.2143C95.3324 46.709 95.3916 46.7683 95.3916 46.8864V47.3546Z" fill="white"/>
<path d="M99.4179 46.7092C99.4771 46.7092 99.5193 46.7305 99.5447 46.7726C99.5785 46.8064 99.5952 46.8486 99.5952 46.8991V47.3551C99.5952 47.4733 99.5363 47.5321 99.4179 47.5321H98.8483C98.5361 47.5321 98.2486 47.4649 97.987 47.3297C97.7337 47.1862 97.5229 46.9963 97.354 46.7597C97.185 46.9963 96.9696 47.1862 96.708 47.3297C96.4547 47.4649 96.1718 47.5321 95.8597 47.5321H95.2137C95.0956 47.5321 95.0364 47.4733 95.0364 47.3551V46.8865C95.0364 46.7684 95.0956 46.7092 95.2137 46.7092H95.9861C96.2648 46.7092 96.5052 46.612 96.708 46.4179C96.9104 46.2151 97.0118 45.9748 97.0118 45.696V39.3011H97.7083V45.7465C97.7083 45.8817 97.7337 46.0086 97.7842 46.1267C97.8434 46.2364 97.9194 46.3378 98.0124 46.4305C98.1055 46.5152 98.2107 46.5824 98.3288 46.6333C98.4556 46.6838 98.5866 46.7092 98.7214 46.7092H99.4179Z" fill="white"/>
<path d="M100.75 46.7092C101.028 46.7092 101.264 46.612 101.459 46.418C101.661 46.2152 101.763 45.9744 101.763 45.6961V43.4673H102.459V45.6961C102.459 45.9494 102.409 46.1897 102.307 46.418C102.214 46.6371 102.083 46.8315 101.915 47.0005C101.754 47.1607 101.56 47.2918 101.332 47.3928C101.113 47.4858 100.876 47.5321 100.623 47.5321H99.42C99.3015 47.5321 99.2427 47.4729 99.2427 47.3548V46.8991C99.2427 46.8482 99.2594 46.8064 99.2932 46.7723C99.327 46.7301 99.3691 46.7092 99.42 46.7092H100.75ZM99.4451 50.0016H100.395V49.0519H99.4451V50.0016ZM101.053 50.0016H102.003V49.0519H101.053V50.0016ZM100.281 51.42H101.231V50.4702H100.281V51.42Z" fill="white"/>
<path d="M105.124 47.5321H104.427V39.3011H105.124V47.5321Z" fill="white"/>
<path d="M109.943 48.1654C109.792 48.1065 109.656 48.0557 109.538 48.0135C109.428 47.9713 109.323 47.9208 109.222 47.8616C109.129 47.8111 109.032 47.7351 108.931 47.6338C108.838 47.5411 108.791 47.4097 108.791 47.2411C108.791 47.0976 108.82 46.9331 108.88 46.7474C108.939 46.5613 108.981 46.4265 109.007 46.3419L109.538 44.8475L110.134 45.0629L109.526 46.7979L110.311 47.0892L109.943 48.1654Z" fill="white"/>
<path d="M115.456 43.4671H116.405V42.5169H115.456V43.4671ZM117.064 43.4671H118.014V42.5169H117.064V43.4671ZM113.024 43.4671V45.2526C113.024 45.455 113.062 45.6449 113.138 45.8223C113.214 45.9996 113.32 46.1557 113.455 46.2909C113.59 46.4177 113.746 46.5187 113.923 46.5947C114.101 46.6706 114.291 46.709 114.493 46.709H119.444C119.723 46.709 119.959 46.6117 120.154 46.4177C120.356 46.2149 120.458 45.9704 120.458 45.6829V43.8214H121.154V45.6829C121.154 45.9704 121.251 46.2149 121.445 46.4177C121.648 46.6117 121.893 46.709 122.18 46.709H122.547C122.665 46.709 122.724 46.7678 122.724 46.8859V47.3545C122.724 47.4726 122.665 47.5319 122.547 47.5319H122.307C121.994 47.5319 121.707 47.4559 121.445 47.304C121.192 47.1521 120.981 46.941 120.812 46.6706C120.643 46.9493 120.428 47.1647 120.166 47.3166C119.905 47.4601 119.617 47.5319 119.305 47.5319H114.493C114.197 47.5319 113.919 47.4772 113.657 47.3674C113.395 47.2493 113.163 47.0929 112.961 46.8988C112.766 46.7048 112.61 46.4766 112.492 46.2149C112.382 45.9533 112.328 45.6745 112.328 45.3791V43.4671H113.024Z" fill="white"/>
<path d="M123.874 46.7092C124.152 46.7092 124.389 46.612 124.583 46.418C124.786 46.2152 124.887 45.9744 124.887 45.6961V43.4673H125.584V45.6961C125.584 45.9494 125.533 46.1897 125.432 46.418C125.339 46.6371 125.208 46.8315 125.039 47.0005C124.879 47.1608 124.684 47.2918 124.456 47.3928C124.237 47.4858 124 47.5322 123.747 47.5322H122.544C122.426 47.5322 122.367 47.4729 122.367 47.3548V46.8991C122.367 46.8482 122.384 46.8065 122.418 46.7723C122.451 46.7301 122.494 46.7092 122.544 46.7092H123.874ZM122.544 50.0017H123.494V49.0519H122.544V50.0017ZM124.152 50.0017H125.102V49.0519H124.152V50.0017Z" fill="white"/>
<path d="M130.135 47.3551C130.135 47.4733 130.076 47.5321 129.958 47.5321H129.451C129.198 47.5321 128.957 47.4858 128.729 47.3931C128.51 47.2917 128.315 47.1611 128.147 47.0005C127.986 46.8319 127.856 46.6374 127.754 46.4179C127.661 46.1901 127.615 45.9493 127.615 45.696V39.3011H128.311V45.696C128.311 45.9748 128.408 46.2151 128.602 46.4179C128.805 46.612 129.046 46.7092 129.324 46.7092H129.958C130.008 46.7092 130.05 46.7305 130.084 46.7726C130.118 46.8064 130.135 46.8486 130.135 46.8991V47.3551Z" fill="white"/>
<path d="M133.347 47.5321C133.034 47.5321 132.747 47.4603 132.485 47.3168C132.224 47.1649 132.008 46.9454 131.839 46.6583C131.671 46.9454 131.455 47.1649 131.194 47.3168C130.932 47.4603 130.645 47.5321 130.332 47.5321H129.953C129.902 47.5321 129.86 47.5154 129.826 47.4816C129.792 47.4394 129.775 47.3969 129.775 47.3548V46.8865C129.775 46.7684 129.835 46.7092 129.953 46.7092H130.459C130.738 46.7092 130.978 46.6078 131.181 46.405C131.384 46.2026 131.485 45.9619 131.485 45.6835V43.8091H132.181V45.7086C132.181 45.9873 132.283 46.2239 132.485 46.4179C132.688 46.612 132.925 46.7092 133.195 46.7092H133.372C133.642 46.7092 133.878 46.6245 134.081 46.4559C134.292 46.2869 134.423 46.0716 134.474 45.81L134.841 43.9105L135.537 44.0244L135.221 45.6072C135.196 45.7594 135.204 45.9026 135.246 46.0378C135.288 46.1646 135.356 46.2786 135.449 46.38C135.541 46.481 135.655 46.5611 135.791 46.6203C135.934 46.6796 136.09 46.7092 136.259 46.7092H136.31C136.588 46.7092 136.825 46.6078 137.019 46.405C137.221 46.2026 137.323 45.9619 137.323 45.6835V43.4293H138.019V45.7594C138.045 46.0294 138.155 46.2573 138.349 46.443C138.543 46.6203 138.775 46.7092 139.045 46.7092H139.552C139.594 46.7092 139.632 46.7259 139.666 46.7597C139.708 46.7935 139.729 46.8356 139.729 46.8865V47.3548C139.729 47.3969 139.712 47.4394 139.678 47.4816C139.644 47.5154 139.602 47.5321 139.552 47.5321H139.172C138.859 47.5321 138.572 47.4603 138.311 47.3168C138.057 47.1649 137.846 46.9454 137.678 46.6583C137.509 46.9454 137.293 47.1649 137.032 47.3168C136.77 47.4603 136.487 47.5321 136.183 47.5321C135.888 47.5321 135.613 47.4603 135.36 47.3168C135.115 47.1736 134.934 46.9538 134.815 46.6583C134.647 46.9538 134.431 47.1736 134.169 47.3168C133.916 47.4603 133.642 47.5321 133.347 47.5321Z" fill="white"/>
<path d="M140.878 46.7092C141.157 46.7092 141.393 46.612 141.587 46.418C141.79 46.2152 141.891 45.9744 141.891 45.6961V43.4673H142.588V45.6961C142.588 45.9494 142.537 46.1897 142.436 46.418C142.343 46.6371 142.212 46.8315 142.043 47.0005C141.883 47.1608 141.688 47.2918 141.46 47.3928C141.241 47.4858 141.005 47.5322 140.751 47.5322H139.548C139.43 47.5322 139.371 47.4729 139.371 47.3548V46.8991C139.371 46.8482 139.388 46.8065 139.422 46.7723C139.455 46.7301 139.498 46.7092 139.548 46.7092H140.878ZM139.751 50.0017H140.701V49.0519H139.751V50.0017Z" fill="white"/>
<path d="M148.46 47.6589C148.46 47.946 148.414 48.2247 148.321 48.4947C148.237 48.7647 148.115 49.0096 147.954 49.2291C147.794 49.457 147.6 49.6556 147.371 49.8242C147.152 49.9932 146.907 50.1242 146.637 50.2168L145.282 50.6729L145.054 49.951L146.485 49.4695C146.865 49.343 147.169 49.1194 147.397 48.7985C147.633 48.486 147.751 48.1275 147.751 47.7223V47.4436C147.633 47.5028 147.489 47.532 147.321 47.532H145.865C145.62 47.532 145.392 47.4815 145.181 47.3801C144.978 47.2704 144.805 47.131 144.662 46.9624C144.518 46.7934 144.417 46.5952 144.358 46.367C144.298 46.1391 144.29 45.9071 144.332 45.6705L144.548 44.5184C144.581 44.3323 144.645 44.1637 144.737 44.0118C144.83 43.8599 144.944 43.7289 145.079 43.6191C145.223 43.501 145.379 43.4125 145.548 43.3533C145.717 43.2857 145.894 43.2519 146.08 43.2519H146.789C147.017 43.2519 147.232 43.2982 147.435 43.3913C147.638 43.4756 147.815 43.5937 147.967 43.7456C148.119 43.8891 148.237 44.0623 148.321 44.2651C148.414 44.4675 148.46 44.6828 148.46 44.9106V47.6589ZM147.764 46.7091V44.9106C147.764 44.6574 147.676 44.4462 147.498 44.2776C147.321 44.1003 147.106 44.0118 146.852 44.0118H146.092C145.873 44.0118 145.679 44.079 145.51 44.2142C145.35 44.3494 145.248 44.5222 145.206 44.7337L145.016 45.7594C144.991 45.8858 144.995 46.0085 145.029 46.1266C145.063 46.2363 145.113 46.3377 145.181 46.4304C145.257 46.5151 145.345 46.5823 145.447 46.6332C145.557 46.6837 145.675 46.7091 145.801 46.7091H147.764Z" fill="white"/>
<path d="M72.3411 27.97L71.7141 26.0325L75.1903 24.8928C75.9882 24.6268 76.6341 24.1424 77.1278 23.4396C77.6408 22.7368 77.8971 21.958 77.8971 21.1031V12.0708H79.8346V20.9322C79.8346 21.597 79.7302 22.2334 79.5213 22.8413C79.3314 23.4681 79.0462 24.0379 78.6665 24.5508C78.3057 25.0827 77.8592 25.5386 77.3275 25.9185C76.8145 26.3174 76.2445 26.6308 75.6179 26.8588L72.3411 27.97Z" fill="white"/>
<path d="M89.9283 20.4767C89.9283 20.7426 89.7954 20.8756 89.5292 20.8756H88.475C87.8864 20.8756 87.3259 20.7616 86.7938 20.5336C86.2622 20.3057 85.7966 19.9923 85.3979 19.5934C84.9988 19.1945 84.6855 18.7291 84.4576 18.1972C84.2294 17.6653 84.1155 17.105 84.1155 16.5161V2.09859H86.0818V16.4876C86.0818 17.0575 86.2812 17.5419 86.6799 17.9408C87.098 18.3397 87.5822 18.5391 88.1332 18.5391H89.5292C89.6435 18.5391 89.7384 18.5866 89.8144 18.6816C89.8903 18.7576 89.9283 18.8526 89.9283 18.9665V20.4767Z" fill="white"/>
<path d="M89.5197 20.8755C89.2539 20.8755 89.1206 20.7425 89.1206 20.4766V18.9664C89.1206 18.8715 89.159 18.7765 89.2349 18.6815C89.3109 18.5865 89.4058 18.539 89.5197 18.539H94.164C95.0758 18.539 95.9496 18.3871 96.7854 18.0832C97.6402 17.7792 98.4001 17.3234 99.065 16.7155L101.572 14.3791C101.8 14.1701 101.971 14.0371 102.085 13.9801L95.2752 11.9571C94.9144 11.8432 94.5726 11.8812 94.2495 12.0711C93.9457 12.2421 93.7368 12.4985 93.6229 12.8404L92.882 15.1199L91.1724 14.6355L91.8274 12.3845C91.9607 11.9286 92.1696 11.5298 92.4544 11.1878C92.7586 10.8269 93.1004 10.542 93.4801 10.333C93.8792 10.1241 94.2969 10.0006 94.734 9.96261C95.1897 9.90565 95.6363 9.94363 96.073 10.0766L107.072 13.3818L106.473 15.2908L105.334 14.9489C104.858 14.8539 104.45 14.8539 104.108 14.9489C103.785 15.0439 103.482 15.2054 103.196 15.4333V16.4875C103.196 17.0574 103.396 17.5418 103.795 17.9407C104.213 18.3396 104.707 18.539 105.277 18.539H109.038C109.152 18.539 109.246 18.5865 109.322 18.6815C109.398 18.7575 109.436 18.843 109.436 18.938V20.4766C109.436 20.7425 109.303 20.8755 109.038 20.8755H105.618C105.048 20.8755 104.526 20.7805 104.051 20.5905C103.576 20.3816 103.158 20.1062 102.798 19.7643C102.436 19.4033 102.142 18.9854 101.914 18.5106C101.705 18.0167 101.572 17.4943 101.515 16.9434L99.5492 18.767C98.7893 19.4508 97.925 19.9732 96.9563 20.3341C96.0066 20.695 95.0188 20.8755 93.9931 20.8755H89.5197ZM97.3554 24.2947H99.7771V26.7166H97.3554V24.2947Z" fill="white"/>
<path d="M109.026 18.5387H114.098C114.363 18.5387 114.496 18.6717 114.496 18.9376V20.4762C114.496 20.7422 114.363 20.8752 114.098 20.8752H109.026C108.76 20.8752 108.626 20.7422 108.626 20.4762V18.9376C108.626 18.6717 108.76 18.5387 109.026 18.5387Z" fill="white"/>
<path d="M111.914 18.5387H116.985C117.251 18.5387 117.384 18.6717 117.384 18.9376V20.4762C117.384 20.7422 117.251 20.8752 116.985 20.8752H111.914C111.648 20.8752 111.515 20.7422 111.515 20.4762V18.9376C111.515 18.6717 111.648 18.5387 111.914 18.5387Z" fill="white"/>
<path d="M116.974 18.5387H122.046C122.312 18.5387 122.445 18.6717 122.445 18.9376V20.4762C122.445 20.7422 122.312 20.8752 122.046 20.8752H116.974C116.708 20.8752 116.575 20.7422 116.575 20.4762V18.9376C116.575 18.6717 116.708 18.5387 116.974 18.5387Z" fill="white"/>
<path d="M122.043 18.5387H127.115C127.38 18.5387 127.513 18.6717 127.513 18.9376V20.4762C127.513 20.7422 127.38 20.8752 127.115 20.8752H122.043C121.777 20.8752 121.644 20.7422 121.644 20.4762V18.9376C121.644 18.6717 121.777 18.5387 122.043 18.5387Z" fill="white"/>
<path d="M129.98 18.539C130.549 18.539 131.034 18.3395 131.433 17.9406C131.832 17.5227 132.031 17.0383 132.031 16.4875V11.2732H133.997V16.516C133.997 17.1238 133.883 17.6937 133.655 18.2255C133.427 18.7574 133.114 19.2228 132.715 19.6217C132.316 20.0016 131.851 20.3056 131.319 20.5335C130.806 20.7615 130.245 20.8754 129.638 20.8754H127.102C126.836 20.8754 126.703 20.7424 126.703 20.4765V18.9664C126.703 18.8524 126.741 18.7574 126.817 18.6814C126.893 18.5864 126.988 18.539 127.102 18.539H129.98ZM127.643 26.7165H130.065V24.2946H127.643V26.7165Z" fill="white"/>
<path d="M147.412 20.9608C147.412 21.6256 147.308 22.2715 147.099 22.8983C146.89 23.5251 146.595 24.095 146.215 24.6079C145.855 25.1398 145.408 25.6052 144.876 26.0041C144.363 26.4029 143.784 26.7069 143.138 26.9158L139.89 28.0271L139.263 26.0611L142.682 24.9213C143.499 24.6364 144.155 24.152 144.648 23.4682C145.161 22.8033 145.418 22.034 145.418 21.1602V20.6473C145.266 20.7423 145.085 20.8088 144.876 20.8468C144.686 20.8658 144.487 20.8753 144.278 20.8753H141.343C140.754 20.8753 140.203 20.7518 139.691 20.5049C139.197 20.258 138.779 19.9255 138.437 19.5076C138.095 19.0897 137.848 18.6148 137.696 18.083C137.563 17.5321 137.553 16.9717 137.667 16.4019L138.152 13.809C138.228 13.3721 138.38 12.9732 138.608 12.6123C138.836 12.2324 139.111 11.9095 139.434 11.6435C139.757 11.3776 140.118 11.1686 140.517 11.0167C140.935 10.8647 141.372 10.7887 141.827 10.7887H143.423C143.974 10.7887 144.487 10.8932 144.962 11.1021C145.456 11.3111 145.883 11.596 146.244 11.957C146.605 12.2988 146.89 12.7168 147.099 13.2107C147.308 13.6855 147.412 14.1984 147.412 14.7493V20.9608ZM145.446 18.5388V14.7493C145.446 14.2554 145.266 13.8375 144.905 13.4956C144.563 13.1347 144.145 12.9542 143.651 12.9542H141.77C141.333 12.9542 140.954 13.0872 140.631 13.3531C140.308 13.619 140.099 13.9705 140.004 14.4074L139.576 16.6868C139.481 17.1807 139.596 17.6176 139.918 17.9975C140.241 18.3584 140.65 18.5388 141.143 18.5388H145.446Z" fill="white"/>
<path d="M165.765 43.109V42.313L173.154 37.7296L174.058 39.1516L168.292 42.6297L174.058 46.0384L173.154 47.4605L165.765 43.109Z" fill="white"/>
<path fill-rule="evenodd" clip-rule="evenodd" d="M165.54 43.2358V42.1896L173.22 37.4258L174.364 39.2242L168.721 42.6278L174.365 45.9643L173.223 47.7605L165.54 43.2358ZM168.289 42.6297L174.055 39.1516L173.151 37.7296L165.762 42.313V43.109L173.151 47.4605L174.055 46.0387L168.289 42.6297Z" fill="white"/>
<path d="M175.818 49.269L181.476 36.5079L183.022 37.2038L177.372 49.9954L175.818 49.269Z" fill="white"/>
<path fill-rule="evenodd" clip-rule="evenodd" d="M175.526 49.3781L181.362 36.2146L183.312 37.0923L177.482 50.2925L175.526 49.3781ZM175.817 49.2695L181.475 36.5082L183.021 37.2041L177.37 49.996L175.817 49.2695Z" fill="white"/>
<path d="M184.746 46.0384L190.505 42.6297L184.746 39.1516L185.643 37.7296L193.04 42.313V43.109L185.643 47.4605L184.746 46.0384Z" fill="white"/>
<path fill-rule="evenodd" clip-rule="evenodd" d="M184.437 45.9636L190.072 42.6276L184.438 39.2243L185.572 37.4252L193.261 42.1893V43.2355L185.57 47.7606L184.437 45.9636ZM190.504 42.6294L184.746 46.0384L185.642 47.4606L193.039 43.1091V42.3127L185.642 37.7294L184.746 39.1517L190.504 42.6294Z" fill="white"/>
<path fill-rule="evenodd" clip-rule="evenodd" d="M169.103 2.8614C164.557 2.8614 160.871 6.54671 160.871 11.0927V45.9175C160.871 50.4635 164.557 54.1489 169.103 54.1489H203.928C208.474 54.1489 212.159 50.4635 212.159 45.9175V11.0927C212.159 6.54671 208.474 2.8614 203.928 2.8614H169.103ZM158.022 11.0927C158.022 4.97304 162.983 0.012085 169.103 0.012085H203.928C210.048 0.012085 215.009 4.97304 215.009 11.0927V45.9175C215.009 52.0375 210.048 56.9982 203.928 56.9982H169.103C162.983 56.9982 158.022 52.0375 158.022 45.9175V11.0927Z" fill="white"/>
</g>
<defs>
<clipPath id="clip0">
<rect width="215.013" height="57" fill="white"/>
</clipPath>
</defs>
</svg>
